<svg width="22" height="22" viewBox="0 0 22 22" fill="none" xmlns="http://www.w3.org/2000/svg">
<path d="M17.5797 2.72534C15.8223 0.967873 13.4856 0 11.0002 0C8.51481 0 6.17808 0.967873 4.42065 2.72534C2.66319 4.48285 1.69531 6.8195 1.69531 9.30486C1.69531 14.3327 6.4493 18.5147 9.00332 20.7613C9.35825 21.0735 9.66474 21.3432 9.90893 21.5713C10.2149 21.857 10.6076 22 11.0002 22C11.3929 22 11.7855 21.857 12.0915 21.5713C12.3356 21.3431 12.6421 21.0735 12.9971 20.7613C15.5511 18.5146 20.3051 14.3327 20.3051 9.30486C20.305 6.8195 19.3372 4.48285 17.5797 2.72534ZM12.1458 19.7938C11.7831 20.1128 11.4699 20.3884 11.2117 20.6296C11.0931 20.7403 10.9073 20.7403 10.7886 20.6296C10.5304 20.3883 10.2171 20.1128 9.85445 19.7937C7.45335 17.6816 2.98395 13.75 2.98395 9.3049C2.98395 4.88478 6.57997 1.28876 11.0001 1.28876C15.4202 1.28876 19.0163 4.88478 19.0163 9.3049C19.0163 13.75 14.5469 17.6816 12.1458 19.7938Z" fill="url(#paint0_linear_1212_598)"/>
<path d="M11.0009 4.85254C8.73989 4.85254 6.90039 6.69199 6.90039 8.95305C6.90039 11.2141 8.73989 13.0536 11.0009 13.0536C13.262 13.0536 15.1015 11.2141 15.1015 8.95305C15.1015 6.69199 13.262 4.85254 11.0009 4.85254ZM11.0009 11.7648C9.45051 11.7648 8.18911 10.5034 8.18911 8.95301C8.18911 7.40261 9.45051 6.14122 11.0009 6.14122C12.5514 6.14122 13.8127 7.40261 13.8127 8.95301C13.8127 10.5034 12.5514 11.7648 11.0009 11.7648Z" fill="url(#paint1_linear_1212_598)"/>
<defs>
<linearGradient id="paint0_linear_1212_598" x1="1.69531" y1="12.8965" x2="20.3051" y2="12.8965" gradientUnits="userSpaceOnUse">
<stop stop-color="#00229E"/>
<stop offset="0.479167" stop-color="#6E1299"/>
<stop offset="1" stop-color="#FE0094"/>
</linearGradient>
<linearGradient id="paint1_linear_1212_598" x1="6.90039" y1="9.66004" x2="15.1015" y2="9.66004" gradientUnits="userSpaceOnUse">
<stop stop-color="#00229E"/>
<stop offset="0.479167" stop-color="#6E1299"/>
<stop offset="1" stop-color="#FE0094"/>
</linearGradient>
</defs>
</svg>
