<svg width="25" height="25" viewBox="0 0 25 25" fill="none" xmlns="http://www.w3.org/2000/svg">
<g clip-path="url(#clip0_1212_606)">
<path d="M18.9853 8.26401C18.7954 8.07261 18.4862 8.07134 18.2948 8.26123C18.1034 8.45117 18.1021 8.76035 18.292 8.9518L18.295 8.95483C18.39 9.05068 18.5146 9.09844 18.6394 9.09844C18.7638 9.09844 18.8884 9.05088 18.984 8.95605C19.1755 8.76611 19.1752 8.45547 18.9853 8.26401Z" fill="url(#paint0_linear_1212_606)"/>
<path d="M24.8564 14.1356L20.3214 9.60054C20.1307 9.40991 19.8215 9.40991 19.6308 9.60054C19.4401 9.79121 19.4401 10.1004 19.6308 10.2911L23.231 13.8913H14.6458C13.9336 13.8913 13.3542 13.3119 13.3542 12.5997V4.01455L16.83 7.49024C17.0206 7.68086 17.3298 7.68086 17.5205 7.49024C17.7112 7.29956 17.7112 6.99038 17.5205 6.79966L13.1099 2.38906C12.9192 2.19844 12.61 2.19844 12.4194 2.38906L4.63519 10.1734C4.44452 10.3641 4.44452 10.6732 4.63519 10.864L16.3817 22.6105C16.4733 22.702 16.5975 22.7535 16.727 22.7535C16.8565 22.7535 16.9807 22.702 17.0723 22.6105L24.8565 14.8262C24.948 14.7346 24.9995 14.6104 24.9995 14.4809C24.9994 14.3514 24.948 14.2272 24.8564 14.1356ZM12.3778 3.81187V10.0304H6.15922L12.3778 3.81187ZM16.2387 21.0863L6.15922 11.0069H12.3778V12.5997C12.3778 13.8503 13.3953 14.8678 14.6459 14.8678H16.2387V21.0863ZM17.2152 21.0864V14.8678H23.4337L17.2152 21.0864Z" fill="url(#paint1_linear_1212_606)"/>
<path d="M3.35112 12.4023H0.488281C0.218604 12.4023 0 12.621 0 12.8906C0 13.1603 0.218604 13.3789 0.488281 13.3789H3.35112C3.6208 13.3789 3.8394 13.1603 3.8394 12.8906C3.8394 12.621 3.6208 12.4023 3.35112 12.4023Z" fill="url(#paint2_linear_1212_606)"/>
<path d="M4.80615 12.4023H4.79883C4.52915 12.4023 4.31055 12.621 4.31055 12.8906C4.31055 13.1603 4.52915 13.3789 4.79883 13.3789H4.80615C5.07583 13.3789 5.29443 13.1603 5.29443 12.8906C5.29443 12.621 5.07583 12.4023 4.80615 12.4023Z" fill="url(#paint3_linear_1212_606)"/>
<path d="M2.05093 7.27539H0.488281C0.218604 7.27539 0 7.49404 0 7.76367C0 8.0333 0.218604 8.25195 0.488281 8.25195H2.05093C2.32061 8.25195 2.53921 8.0333 2.53921 7.76367C2.53921 7.49404 2.32061 7.27539 2.05093 7.27539Z" fill="url(#paint4_linear_1212_606)"/>
<path d="M5.49355 7.27539H3.64648C3.37681 7.27539 3.1582 7.49404 3.1582 7.76367C3.1582 8.0333 3.37681 8.25195 3.64648 8.25195H5.49355C5.76323 8.25195 5.98184 8.0333 5.98184 7.76367C5.98184 7.49404 5.76323 7.27539 5.49355 7.27539Z" fill="url(#paint5_linear_1212_606)"/>
<path d="M6.55659 15.0879H3.82227C3.55259 15.0879 3.33398 15.3065 3.33398 15.5762C3.33398 15.8458 3.55259 16.0645 3.82227 16.0645H6.55659C6.82627 16.0645 7.04487 15.8458 7.04487 15.5762C7.04487 15.3065 6.82622 15.0879 6.55659 15.0879Z" fill="url(#paint6_linear_1212_606)"/>
<path d="M8.69136 18.2129H1.80664C1.53696 18.2129 1.31836 18.4315 1.31836 18.7012C1.31836 18.9708 1.53696 19.1895 1.80664 19.1895H8.69136C8.96103 19.1895 9.17964 18.9708 9.17964 18.7012C9.17964 18.4315 8.96103 18.2129 8.69136 18.2129Z" fill="url(#paint7_linear_1212_606)"/>
</g>
<defs>
<linearGradient id="paint0_linear_1212_606" x1="18.1504" y1="8.69341" x2="19.1277" y2="8.69341" gradientUnits="userSpaceOnUse">
<stop stop-color="#00229E"/>
<stop offset="0.479167" stop-color="#6E1299"/>
<stop offset="1" stop-color="#FE0094"/>
</linearGradient>
<linearGradient id="paint1_linear_1212_606" x1="4.49219" y1="14.2677" x2="24.9995" y2="14.2677" gradientUnits="userSpaceOnUse">
<stop stop-color="#00229E"/>
<stop offset="0.479167" stop-color="#6E1299"/>
<stop offset="1" stop-color="#FE0094"/>
</linearGradient>
<linearGradient id="paint2_linear_1212_606" x1="7.84023e-09" y1="12.9748" x2="3.8394" y2="12.9748" gradientUnits="userSpaceOnUse">
<stop stop-color="#00229E"/>
<stop offset="0.479167" stop-color="#6E1299"/>
<stop offset="1" stop-color="#FE0094"/>
</linearGradient>
<linearGradient id="paint3_linear_1212_606" x1="4.31055" y1="12.9748" x2="5.29443" y2="12.9748" gradientUnits="userSpaceOnUse">
<stop stop-color="#00229E"/>
<stop offset="0.479167" stop-color="#6E1299"/>
<stop offset="1" stop-color="#FE0094"/>
</linearGradient>
<linearGradient id="paint4_linear_1212_606" x1="5.18517e-09" y1="7.84786" x2="2.53921" y2="7.84786" gradientUnits="userSpaceOnUse">
<stop stop-color="#00229E"/>
<stop offset="0.479167" stop-color="#6E1299"/>
<stop offset="1" stop-color="#FE0094"/>
</linearGradient>
<linearGradient id="paint5_linear_1212_606" x1="3.1582" y1="7.84786" x2="5.98184" y2="7.84786" gradientUnits="userSpaceOnUse">
<stop stop-color="#00229E"/>
<stop offset="0.479167" stop-color="#6E1299"/>
<stop offset="1" stop-color="#FE0094"/>
</linearGradient>
<linearGradient id="paint6_linear_1212_606" x1="3.33398" y1="15.6604" x2="7.04487" y2="15.6604" gradientUnits="userSpaceOnUse">
<stop stop-color="#00229E"/>
<stop offset="0.479167" stop-color="#6E1299"/>
<stop offset="1" stop-color="#FE0094"/>
</linearGradient>
<linearGradient id="paint7_linear_1212_606" x1="1.31836" y1="18.7854" x2="9.17964" y2="18.7854" gradientUnits="userSpaceOnUse">
<stop stop-color="#00229E"/>
<stop offset="0.479167" stop-color="#6E1299"/>
<stop offset="1" stop-color="#FE0094"/>
</linearGradient>
<clipPath id="clip0_1212_606">
<rect width="25" height="25" fill="white"/>
</clipPath>
</defs>
</svg>
